<svg id="Layer_1" data-name="Layer 1" xmlns="http://www.w3.org/2000/svg" viewBox="0 0 1708.19 365.79"><defs><style>.cls-1{fill:#1d1d1b;}</style></defs><path class="cls-1" d="M145.9,972.29,338.22,817.1c-41.54,120.34-37,241.94-20.24,365.8Z" transform="translate(-145.9 -817.1)"/><path class="cls-1" d="M325.07,1141.34c-10.2-46.29-9.92-92.42-5.85-138.57,1.82-20.74,5.55-41.33,9-61.9.63-3.74,3.37-9,6.42-10.18C371.6,917,408.8,904,447.16,892,387.16,966,337.06,1044.29,325.07,1141.34Z" transform="translate(-145.9 -817.1)"/><path class="cls-1" d="M334,1168.41c2.61-18.54,4.47-37.22,8-55.58,6.41-33.41,18.17-65,36.18-94,2.75-4.42,9.13-9.11,14-9.27,27.09-.9,54.23-.43,85.8-.43-61.69,43.55-106.81,97-140.29,160.49Z" transform="translate(-145.9 -817.1)"/><path class="cls-1" d="M572.66,898.52l2.08-2.09h44.84v39.18c0,4.18,0,7.9.15,11.18s.15,7,.15,11v81.94q0,5.8-.15,10.65t-.15,10.8v39.62H600.07q-12.81,0-20.11-7.44t-7.3-20.41Zm130.5-2.09a80.5,80.5,0,0,1,1.34,10.06c.2,3.13.3,6,.3,8.72a69.44,69.44,0,0,1-3.88,21.15H640c-2.48,0-6-.05-10.57-.15s-9.27-.17-14.08-.22-8.82-.13-12-.23V896.43Zm-17.73,81.79a48.52,48.52,0,0,1,2.16,10,82.71,82.71,0,0,1,.67,9.54,76.14,76.14,0,0,1-.67,9.38,54.94,54.94,0,0,1-2.16,10H640c-2.48,0-6-.05-10.57-.15s-9.27-.17-14.08-.22-8.82-.12-12-.22V978.82q4.75-.15,12-.23t14.08-.22c4.56-.1,8.09-.15,10.57-.15Zm25.17,82.68q0,19.66-6.18,29.79t-25.1,10.13h-76v-38.43q9.67-.45,18.47-1t19.81-.52Z" transform="translate(-145.9 -817.1)"/><path class="cls-1" d="M908.89,998a223.21,223.21,0,0,1-2.46,33.6,98.31,98.31,0,0,1-9.61,30.16q-7.16,14-21.45,25a55.42,55.42,0,0,1-16.46,8.64,110.54,110.54,0,0,1-19.74,4.77,128.4,128.4,0,0,1-18.48,1.49q-12.81,0-25.1-.23l-24.58-.44q-12.28-.22-25.25-.52l-2.08-2.09V897.92l2.08-2.08q12.81-.45,25.1-.67t24.66-.37q12.36-.15,25.17-.15a122.31,122.31,0,0,1,18.48,1.56A118.07,118.07,0,0,1,859,901.05a53.66,53.66,0,0,1,16.39,8.64q14.14,11,21.3,25a98.87,98.87,0,0,1,9.68,30A214.22,214.22,0,0,1,908.89,998Zm-49,0a192.22,192.22,0,0,0-1.41-23,84.07,84.07,0,0,0-5.36-21.45,37.18,37.18,0,0,0-11.77-15.8q-7.83-6-20.64-6h-14.6q-7,0-14.89-.3v133.33c5.26-.09,10.23-.15,14.89-.15h14.6q12.81,0,20.64-6a37,37,0,0,0,11.77-15.94,86.31,86.31,0,0,0,5.36-21.6A192.26,192.26,0,0,0,859.87,998Z" transform="translate(-145.9 -817.1)"/><path class="cls-1" d="M1100.76,1024.85q0,25.17-9.39,43A63.18,63.18,0,0,1,1064,1095q-18,9.39-43.79,9.39T976.44,1095A63.77,63.77,0,0,1,949,1067.83q-9.46-17.8-9.46-43V896.43l2.09-1.93h17.43q13.7,0,21,7.07t7.3,23V1025.3q0,20.4,7.45,30.76t25.33,10.35q18,0,25.47-10.35t7.45-30.76V896.43a104.34,104.34,0,0,1,12.14-1.41q6.33-.37,11.1-.37c2.88,0,6.72.12,11.54.37a101.59,101.59,0,0,1,12.89,1.41Z" transform="translate(-145.9 -817.1)"/><path class="cls-1" d="M1308.42,998a223.21,223.21,0,0,1-2.46,33.6,98.29,98.29,0,0,1-9.6,30.16q-7.15,14-21.46,25a55.3,55.3,0,0,1-16.46,8.64,110.13,110.13,0,0,1-19.74,4.77,128.27,128.27,0,0,1-18.47,1.49q-12.81,0-25.1-.23l-24.58-.44q-12.29-.22-25.25-.52l-2.09-2.09V897.92l2.09-2.08q12.81-.45,25.1-.67t24.65-.37q12.38-.15,25.18-.15a122.19,122.19,0,0,1,18.47,1.56,118,118,0,0,1,19.82,4.84,53.61,53.61,0,0,1,16.38,8.64q14.16,11,21.31,25a99.15,99.15,0,0,1,9.68,30A214.23,214.23,0,0,1,1308.42,998Zm-49,0a192.22,192.22,0,0,0-1.41-23,84.07,84.07,0,0,0-5.37-21.45,37,37,0,0,0-11.77-15.8q-7.81-6-20.63-6h-14.6q-7,0-14.9-.3v133.33c5.27-.09,10.23-.15,14.9-.15h14.6q12.81,0,20.63-6a36.8,36.8,0,0,0,11.77-15.94,86.32,86.32,0,0,0,5.37-21.6A192.26,192.26,0,0,0,1259.41,998Z" transform="translate(-145.9 -817.1)"/><path class="cls-1" d="M1384.7,896.43q5.65-.88,13.63-1.34t13.92-.44q5.67,0,13.71.52a127.64,127.64,0,0,1,13.85,1.56l64.06,200.07a40.89,40.89,0,0,1-12.73,4.32,78.31,78.31,0,0,1-14.53,1.49q-11.33,0-17.73-5.29t-10.72-20.63l-21.31-75.53q-3.42-12.51-8-29.49t-8.34-31.74h-1.79q-1.5,8.36-4,18.48t-5.29,20.18q-2.76,10.06-5.14,18.1l-30.39,103.54a62.85,62.85,0,0,1-9.61,1.41q-5.14.38-10.65.38a93.16,93.16,0,0,1-12.14-.9,51.28,51.28,0,0,1-10.8-2.38l-1.79-2.53Zm3.57,160.89c-1.39,0-3,0-4.84-.07l-5.51-.15c-1.84,0-3.46-.07-4.84-.07h-25l14.45-37.1h22c1.39,0,3,0,4.76-.07l5.37-.15c1.78-.05,3.37-.08,4.76-.08h21.75c1.39,0,3,0,4.77.08l5.44.15c1.83,0,3.45.07,4.84.07H1459l12.07,37.1h-25.18c-1.39,0-3,0-4.84.07l-5.51.15c-1.84,0-3.45.07-4.84.07Z" transform="translate(-145.9 -817.1)"/><path class="cls-1" d="M1510.87,1082.2a51.27,51.27,0,0,1,6.18-19.81,53.92,53.92,0,0,1,12.29-15.79,169.15,169.15,0,0,0,28.46,13.56,90.49,90.49,0,0,0,31.87,5.95q13,0,18.63-6.25t5.66-13.41a24.66,24.66,0,0,0-3.13-11q-3.13-6.12-15.64-11.33l-35.91-14.89q-18.46-7.76-30.53-20.71t-12.07-34.26q0-18.63,9.68-32.63a64.93,64.93,0,0,1,26.15-21.82Q1569,892,1589.23,892a137.32,137.32,0,0,1,39.62,5.58q18.63,5.6,30.25,11.55a55.81,55.81,0,0,1-4.85,19.74A47.71,47.71,0,0,1,1643,944.7a189.28,189.28,0,0,0-26.52-9.9q-15.2-4.54-27.26-4.55-12.81,0-18.25,5.81t-5.44,11.77a15.22,15.22,0,0,0,3.8,10.13q3.79,4.47,13.63,8.64l36.65,15a85.54,85.54,0,0,1,24.43,14.82,62.58,62.58,0,0,1,15.27,20,55.39,55.39,0,0,1,5.29,24,61.68,61.68,0,0,1-8.72,32.48q-8.72,14.44-26.14,22.94t-43.5,8.49a142.14,142.14,0,0,1-38.44-5.74A134,134,0,0,1,1510.87,1082.2Z" transform="translate(-145.9 -817.1)"/><path class="cls-1" d="M1742.81,1099.93a109.83,109.83,0,0,1-12.58,1.42c-4.42.24-8.22.37-11.4.37-2.88,0-6.61-.13-11.17-.37a105.34,105.34,0,0,1-12.67-1.42V896.43a105.42,105.42,0,0,1,12.67-1.41c4.56-.25,8.29-.37,11.17-.37q4.77,0,11.4.37a109.88,109.88,0,0,1,12.58,1.41v56.91q0,6.25-.14,11.1t-.15,10.95v39.33c0,4,0,7.6.15,10.87s.14,7,.14,11.18Zm14.6-84.91c-1.49,0-3.1,0-4.84-.08l-5.29-.15c-1.78,0-3.37-.07-4.76-.07q-7,0-14.38.15t-14.37.15V975.09q7,0,14.37.15t14.38.15c1.39,0,3,0,4.76-.07l5.29-.15c1.74,0,3.35-.08,4.84-.08h34.42c1.39,0,3,0,4.76.08l5.29.15c1.74,0,3.35.07,4.84.07q7,0,14.3-.15t14.31-.15V1015q-7,0-14.31-.15t-14.3-.15c-1.49,0-3.1,0-4.84.07l-5.29.15c-1.78,0-3.37.08-4.76.08Zm49,21.75c0-4.18,0-7.9.14-11.18s.15-6.9.15-10.87V975.39q0-6.1-.15-10.95c-.1-3.23-.14-6.93-.14-11.1V896.43a109.64,109.64,0,0,1,12.51-1.41q6.55-.37,11.32-.37,4.32,0,11.25.37a100.68,100.68,0,0,1,12.59,1.41v203.5a115.81,115.81,0,0,1-12.22,1.42c-4.07.24-7.75.37-11,.37s-7.28-.13-11.7-.37a114.93,114.93,0,0,1-12.73-1.42Z" transform="translate(-145.9 -817.1)"/></svg>