<svg id="Layer_1" data-name="Layer 1" xmlns="http://www.w3.org/2000/svg" viewBox="0 0 1643.15 353.33"><defs><style>.cls-1{fill:#fff;}</style></defs><path class="cls-1" d="M302.71,1086.11H404.35v90.56H178.42V823.33H404.35V1043.5H302.71Z" transform="translate(-178.42 -823.33)"/><path class="cls-1" d="M472.61,895.09l2.2-2.2H522v41.24q0,6.6.16,11.77t.15,11.6v86.25q0,6.12-.15,11.22c-.11,3.39-.16,7.19-.16,11.37v41.71H501.47q-13.5,0-21.18-7.84t-7.68-21.49ZM610,892.89a83.64,83.64,0,0,1,1.41,10.59q.32,4.93.31,9.17a73.13,73.13,0,0,1-4.08,22.27H543.49q-3.91,0-11.13-.16t-14.82-.23q-7.6-.07-12.62-.24v-41.4ZM591.32,979a50.21,50.21,0,0,1,2.28,10.5,87.82,87.82,0,0,1,.7,10,80.9,80.9,0,0,1-.7,9.88,57,57,0,0,1-2.28,10.51H543.49c-2.61,0-6.32-.06-11.13-.16s-9.75-.18-14.82-.24-9.28-.13-12.62-.23V979.61q5-.15,12.62-.23t14.82-.24q7.21-.15,11.13-.15Zm26.51,87q0,20.7-6.51,31.37t-26.43,10.66h-80v-40.46q10.19-.46,19.44-1t20.86-.55Z" transform="translate(-178.42 -823.33)"/><path class="cls-1" d="M826.56,999.84a235.85,235.85,0,0,1-2.59,35.37A103.59,103.59,0,0,1,813.85,1067q-7.51,14.74-22.58,26.35a58.27,58.27,0,0,1-17.33,9.09,115.53,115.53,0,0,1-20.78,5,134,134,0,0,1-19.44,1.57q-13.5,0-26.43-.23l-25.87-.48q-12.95-.22-26.58-.54l-2.2-2.2V894.46l2.2-2.2q13.49-.46,26.42-.7t26-.39q13-.17,26.51-.16a128.07,128.07,0,0,1,19.44,1.65A123.28,123.28,0,0,1,774,897.75a55.93,55.93,0,0,1,17.25,9.1q14.9,11.61,22.43,26.27a104.38,104.38,0,0,1,10.19,31.59A225.52,225.52,0,0,1,826.56,999.84Zm-51.6,0a202.35,202.35,0,0,0-1.49-24.23A88.63,88.63,0,0,0,767.83,953a39.07,39.07,0,0,0-12.39-16.62q-8.24-6.36-21.72-6.35H718.35q-7.38,0-15.68-.32V1070.1q8.31-.15,15.68-.16h15.37q13.49,0,21.72-6.35a38.84,38.84,0,0,0,12.39-16.78,90.84,90.84,0,0,0,5.64-22.74A202.1,202.1,0,0,0,775,999.84Z" transform="translate(-178.42 -823.33)"/><path class="cls-1" d="M1028.54,1028.07q0,26.51-9.88,45.24a66.63,66.63,0,0,1-28.85,28.62q-19,9.88-46.11,9.88t-46-9.88a67.11,67.11,0,0,1-28.85-28.62q-10-18.74-10-45.24V892.89l2.2-2H879.4q14.43,0,22.12,7.45t7.68,24.23v106q0,21.49,7.84,32.39t26.66,10.89q19,0,26.82-10.89t7.84-32.39V892.89a108.33,108.33,0,0,1,12.78-1.49q6.66-.39,11.68-.39,4.54,0,12.16.39a105.38,105.38,0,0,1,13.56,1.49Z" transform="translate(-178.42 -823.33)"/><path class="cls-1" d="M1247.15,999.84a235.85,235.85,0,0,1-2.59,35.37,103.32,103.32,0,0,1-10.12,31.75q-7.51,14.74-22.58,26.35a58.27,58.27,0,0,1-17.33,9.09,115.63,115.63,0,0,1-20.77,5,134.21,134.21,0,0,1-19.45,1.57q-13.49,0-26.43-.23l-25.87-.48q-12.94-.22-26.58-.54l-2.2-2.2V894.46l2.2-2.2q13.48-.46,26.42-.7t26-.39q13-.17,26.5-.16a128.29,128.29,0,0,1,19.45,1.65,123.4,123.4,0,0,1,20.85,5.09,55.93,55.93,0,0,1,17.25,9.1q14.9,11.61,22.43,26.27a104.1,104.1,0,0,1,10.19,31.59A225.52,225.52,0,0,1,1247.15,999.84Zm-51.6,0a200.29,200.29,0,0,0-1.49-24.23,88.22,88.22,0,0,0-5.64-22.58A39,39,0,0,0,1176,936.41q-8.23-6.36-21.72-6.35h-15.37q-7.37,0-15.68-.32V1070.1q8.31-.15,15.68-.16h15.37q13.49,0,21.72-6.35a38.77,38.77,0,0,0,12.39-16.78,90.41,90.41,0,0,0,5.64-22.74A200,200,0,0,0,1195.55,999.84Z" transform="translate(-178.42 -823.33)"/><path class="cls-1" d="M1327.44,892.89a144.13,144.13,0,0,1,14.35-1.41q8.39-.47,14.66-.47,6,0,14.43.55a133.85,133.85,0,0,1,14.58,1.64l67.44,210.62a43.23,43.23,0,0,1-13.41,4.54,81.73,81.73,0,0,1-15.29,1.57q-11.92,0-18.66-5.57t-11.29-21.71l-22.43-79.51q-3.61-13.18-8.47-31t-8.78-33.41h-1.88q-1.57,8.79-4.24,19.45t-5.56,21.25q-2.91,10.57-5.41,19l-32,109a65.11,65.11,0,0,1-10.11,1.49q-5.41.39-11.21.39a98.13,98.13,0,0,1-12.78-.94,53.36,53.36,0,0,1-11.37-2.51l-1.89-2.66Zm3.76,169.37c-1.46,0-3.16,0-5.09-.08l-5.81-.16c-1.93,0-3.63-.08-5.09-.08h-26.35l15.21-39h23.21c1.47,0,3.14,0,5-.08l5.65-.16c1.88,0,3.55-.08,5-.08h22.89c1.46,0,3.14,0,5,.08l5.72.16c1.94,0,3.63.08,5.1.08h24l12.71,39h-26.51c-1.46,0-3.16,0-5.09.08l-5.81.16c-1.93,0-3.63.08-5.09.08Z" transform="translate(-178.42 -823.33)"/><path class="cls-1" d="M1460.26,1088.45a54.06,54.06,0,0,1,6.51-20.86,56.68,56.68,0,0,1,12.94-16.62,177,177,0,0,0,30,14.27,95.3,95.3,0,0,0,33.56,6.27q13.65,0,19.6-6.59t6-14.11q0-5.18-3.29-11.61T1549,1027.29l-37.79-15.69q-19.45-8.15-32.15-21.79t-12.7-36.07q0-19.61,10.19-34.35a68.43,68.43,0,0,1,27.52-23q17.33-8.24,38.66-8.23a144.57,144.57,0,0,1,41.72,5.88q19.59,5.88,31.83,12.15a58.69,58.69,0,0,1-5.1,20.78,49.93,49.93,0,0,1-11.84,16.7,198.71,198.71,0,0,0-27.91-10.43q-16-4.78-28.7-4.78-13.49,0-19.21,6.12T1517.82,947a16,16,0,0,0,4,10.67q4,4.7,14.35,9.09l38.58,15.84a90.16,90.16,0,0,1,25.72,15.61,65.94,65.94,0,0,1,16.08,21.09,58.29,58.29,0,0,1,5.56,25.25,64.93,64.93,0,0,1-9.17,34.18q-9.18,15.22-27.52,24.15t-45.8,8.94a150.05,150.05,0,0,1-40.46-6A141.58,141.58,0,0,1,1460.26,1088.45Z" transform="translate(-178.42 -823.33)"/><path class="cls-1" d="M1704.43,1107.11a114.09,114.09,0,0,1-13.25,1.49q-7,.39-12,.39-4.54,0-11.76-.39a109.35,109.35,0,0,1-13.33-1.49V892.89a109.35,109.35,0,0,1,13.33-1.49q7.21-.39,11.76-.39,5,0,12,.39a114.09,114.09,0,0,1,13.25,1.49V952.8q0,6.59-.16,11.68t-.15,11.53v41.4q0,6.27.15,11.45t.16,11.76Zm15.37-89.39c-1.57,0-3.27,0-5.1-.08l-5.56-.15c-1.89-.06-3.56-.08-5-.08q-7.38,0-15.14.15t-15.13.16v-42q7.37,0,15.13.16t15.14.16c1.46,0,3.13,0,5-.08l5.56-.16c1.83,0,3.53-.08,5.1-.08H1756c1.47,0,3.14,0,5,.08l5.57.16c1.83.05,3.53.08,5.1.08q7.36,0,15-.16t15.06-.16v42q-7.38,0-15.06-.16t-15-.15c-1.57,0-3.27,0-5.1.08l-5.57.15c-1.88.06-3.55.08-5,.08Zm51.59,22.9q0-6.58.16-11.76c.1-3.45.16-7.27.16-11.45V976c0-4.29-.06-8.13-.16-11.53s-.16-7.29-.16-11.68V892.89a114.1,114.1,0,0,1,13.18-1.49q6.9-.39,11.91-.39,4.56,0,11.84.39a104.65,104.65,0,0,1,13.26,1.49v214.22a120,120,0,0,1-12.86,1.49q-6.43.39-11.61.39t-12.31-.39a119.78,119.78,0,0,1-13.41-1.49Z" transform="translate(-178.42 -823.33)"/></svg>